{
	"asset":{
		"generator":"Khronos glTF Blender I/O v3.6.27",
		"version":"2.0"
	},
	"extensionsUsed":[
		"KHR_materials_specular",
		"KHR_materials_ior"
	],
	"scene":0,
	"scenes":[
		{
			"name":"Scene",
			"nodes":[
				1
			]
		}
	],
	"nodes":[
		{
			"mesh":0,
			"name":"saturn ring",
			"translation":[
				0.022957080975174904,
				0,
				0
			]
		},
		{
			"children":[
				0
			],
			"mesh":1,
			"name":"saturn",
			"rotation":[
				0.01954382285475731,
				-0.04490043222904205,
				-0.05297708138823509,
				0.997394323348999
			]
		}
	],
	"materials":[
		{
			"alphaMode":"BLEND",
			"doubleSided":true,
			"emissiveFactor":[
				1,
				1,
				1
			],
			"emissiveTexture":{
				"index":0
			},
			"extensions":{
				"KHR_materials_specular":{
					"specularColorFactor":[
						0,
						0,
						0
					]
				},
				"KHR_materials_ior":{
					"ior":1.4500000476837158
				}
			},
			"name":"saturn ring",
			"pbrMetallicRoughness":{
				"baseColorTexture":{
					"index":1
				},
				"metallicFactor":0,
				"roughnessFactor":0
			}
		},
		{
			"doubleSided":true,
			"extensions":{
				"KHR_materials_specular":{
					"specularColorTexture":{
						"index":2
					},
					"specularColorFactor":[
						2.6775393759946864,
						2.481098453769475,
						2.494367539065184
					]
				},
				"KHR_materials_ior":{
					"ior":1.4500000476837158
				}
			},
			"name":"saturn",
			"pbrMetallicRoughness":{
				"baseColorTexture":{
					"index":3
				},
				"metallicFactor":0
			}
		}
	],
	"meshes":[
		{
			"name":"Circle",
			"primitives":[
				{
					"attributes":{
						"POSITION":0,
						"NORMAL":1,
						"TEXCOORD_0":2
					},
					"indices":3,
					"material":0
				}
			]
		},
		{
			"name":"Sphere.008",
			"primitives":[
				{
					"attributes":{
						"POSITION":4,
						"NORMAL":5,
						"TEXCOORD_0":6
					},
					"indices":7,
					"material":1
				}
			]
		}
	],
	"textures":[
		{
			"sampler":0,
			"source":0
		},
		{
			"sampler":0,
			"source":1
		},
		{
			"sampler":0,
			"source":2
		},
		{
			"sampler":0,
			"source":3
		}
	],
	"images":[
		{
			"mimeType":"image/png",
			"name":"8k_saturn_ring_alpha",
			"uri":"8k_saturn_ring_alpha.png"
		},
		{
			"mimeType":"image/png",
			"name":"8k_saturn_ring_alpha",
			"uri":"8k_saturn_ring_alpha-1.png"
		},
		{
			"mimeType":"image/png",
			"name":"Image",
			"uri":"Image.png"
		},
		{
			"mimeType":"image/jpeg",
			"name":"8k_saturn",
			"uri":"8k_saturn.jpg"
		}
	],
	"accessors":[
		{
			"bufferView":0,
			"componentType":5126,
			"count":128,
			"max":[
				40.07257843017578,
				0.18494832515716553,
				40.29451370239258
			],
			"min":[
				-40.51644515991211,
				0.18494832515716553,
				-40.29450225830078
			],
			"type":"VEC3"
		},
		{
			"bufferView":1,
			"componentType":5126,
			"count":128,
			"type":"VEC3"
		},
		{
			"bufferView":2,
			"componentType":5126,
			"count":128,
			"type":"VEC2"
		},
		{
			"bufferView":3,
			"componentType":5123,
			"count":192,
			"type":"SCALAR"
		},
		{
			"bufferView":4,
			"componentType":5126,
			"count":2143,
			"max":[
				13.39077091217041,
				13.390763282775879,
				13.390777587890625
			],
			"min":[
				-13.390767097473145,
				-13.390763282775879,
				-13.390763282775879
			],
			"type":"VEC3"
		},
		{
			"bufferView":5,
			"componentType":5126,
			"count":2143,
			"type":"VEC3"
		},
		{
			"bufferView":6,
			"componentType":5126,
			"count":2143,
			"type":"VEC2"
		},
		{
			"bufferView":7,
			"componentType":5123,
			"count":11904,
			"type":"SCALAR"
		}
	],
	"bufferViews":[
		{
			"buffer":0,
			"byteLength":1536,
			"byteOffset":0,
			"target":34962
		},
		{
			"buffer":0,
			"byteLength":1536,
			"byteOffset":1536,
			"target":34962
		},
		{
			"buffer":0,
			"byteLength":1024,
			"byteOffset":3072,
			"target":34962
		},
		{
			"buffer":0,
			"byteLength":384,
			"byteOffset":4096,
			"target":34963
		},
		{
			"buffer":0,
			"byteLength":25716,
			"byteOffset":4480,
			"target":34962
		},
		{
			"buffer":0,
			"byteLength":25716,
			"byteOffset":30196,
			"target":34962
		},
		{
			"buffer":0,
			"byteLength":17144,
			"byteOffset":55912,
			"target":34962
		},
		{
			"buffer":0,
			"byteLength":23808,
			"byteOffset":73056,
			"target":34963
		}
	],
	"samplers":[
		{
			"magFilter":9729,
			"minFilter":9987
		}
	],
	"buffers":[
		{
			"byteLength":96864,
			"uri":"saturn.bin"
		}
	]
}
